<?xml version="1.0" encoding="UTF-8"?>
<svg version="1.1" viewBox="0 0 1024 1024" width="1024" height="1024" xmlns="http://www.w3.org/2000/svg">
<path transform="translate(634,127)" d="m0 0h9l8 3 6 5 4 8 1 4 1 14 3 11 4 8 9 8 13 8 18 10 17 7 9-1 18-5h13l8 4 5 6 2 8v483l-3 9-6 7-10 5-40 13-55 17-73 23-49 15-31 10-97 30-28 9-9 2h-24l-23-5-23-8-18-8-17-10-11-9-7-7-7-11-4-10-2-13v-494l3-12 6-9 10-9 11-5 25-8 45-14 120-37 49-15 54-17 61-19zm0 19-20 6-63 20-66 20-199 62-12 5-5 6v7l5 6 2 1 9-1 307-94 50-15 1-1-1-17-4-5zm10 37-28 9-65 20-111 34-139 42-6 2 3 3 19 10 25 10 16 5 10 2h18l47-14 52-16 49-15 46-14 122-37-3-3-16-8-7-1-45 14-101 31-86 26-50 15-13 4-6-2-4-3h-2v-2l-2-1v-2l51-16 59-18 30-9 55-17 78-24 21-6-6-7-6-8-2-4zm111 43-44 13-137 42-59 18-69 21-50 15-6 2v487l10-2 196-61 63-20 97-30 5-4 1-2v-476l-2-3zm-491 68v464l1 14 4 11 9 10 14 10 17 9 23 9 20 6 14 2 5-1v-488l-7-2-21-5-26-9-23-11-18-11-11-8z" fill="#11DBFF"/>
<path transform="translate(754,207)" d="m0 0h13l8 4 5 6 2 8v483l-3 9-6 7-10 5-40 13-55 17-73 23-49 15-31 10-97 30-28 9-9 2h-24l-23-5-23-8-18-8-17-10-11-9-7-7-2-5v-4h-2l-2-5-3-4-2-12v-82h2l1-3 6-2 4 1-2-6 4-1 1-88h1l1 132v36l1 14 4 11 9 10 13 9 17 9 23 9 20 6 14 2h4l1-137h1l1-22 2-1 1-19 2-2 1-7h3l1 7 2 21 3 17-1 2 1 2 1-22h1v157l184-57 66-21 64-20 29-9 25-8 3-4v-476l-1-2-9 1-43 13-10 2h-3v-3h-2l-1-4 7-1v-2l9-3 2-10 3-3 7-1 11-1 2 1v-3z" fill="#02C6FF"/>
<path transform="translate(263,590)" d="m0 0h1l1 132v36l1 14 4 11 9 10 13 9 17 9 23 9 20 6 14 2h4l1-137h1l1-22 2-1 1-19 2-2 1-7h3l1 7 2 21 3 17-1 2 1 2 1-22h1v157l65-20 5-1 2 5h-2v3l-4 4-3 5h-3v3l3 1 3-2h4v2l-42 13-28 9-9 2h-24l-23-5-23-8-18-8-17-10-11-9-7-7-2-5v-4h-2l-2-5-3-4-2-12v-82h2l1-3 6-2 4 1-2-6 4-1z" fill="#04D1FF"/>
<path transform="translate(603,425)" d="m0 0 5 1v21l-5 3-45 14h-2l1 40 48-14 3 1v22l-5 3-46 14-1 45 49-15 3 1v22l-5 3-65 20h-5l-1-1v-157l4-3z" fill="#04D1FF"/>
<path transform="translate(683,397)" d="m0 0h14l10 4 7 8 4 9 2 11v9l-2 2-16 5h-6l-4-16-3-3-8-1-9 3-8 7-7 12-5 16-2 15v29l3 17 5 12 5 4 2 1h11l8-4 6-7 4-10 3-9 9-3 10-3h4v10l-4 15-8 16-9 10-10 7-10 4-8 2h-15l-10-4-8-7-6-10-5-15-2-10-1-10v-33l3-21 5-17 9-17 11-12 7-6 16-8z" fill="#04D1FF"/>
<path transform="translate(754,207)" d="m0 0h13l8 4 5 6 2 8v325l-2 2-1-25-1-3h2l-2-8h2l-2-3-2-1-1-4 1-5-2-1v-2-4l-3 1-1 9-2 7-1 3h-2l1 4 1-3 1 2-2 4v-2h-2l1 7v9l1 6-1 1-1 55-1 97h-1l-1-467-1-2-9 1-43 13-10 2h-3v-3h-2l-1-4 7-1v-2l9-3 2-10 3-3 7-1 11-1 2 1v-3z" fill="#04D1FF"/>
<path transform="translate(514,451)" d="m0 0 3 3v19l-3 3-30 9h-3l1 55v81l-1 2-16 5h-7l-1-55-1-79-30 9h-4l-1-15 1-8 9-4 49-15z" fill="#11DBFF"/>
<path transform="translate(603,425)" d="m0 0 5 1v21l-5 3-45 14h-2v41l-4-5-1-13v-13l-2-10-8-2-3 3-1 7-1 12-4 1v-37l4-3z" fill="#04D1FF"/>
<path transform="translate(479,555)" d="m0 0h1v66l-6 3h-2v2l-6 1 1-2-5-3v-4l-2-1 3-9-1-13 2-4v-7l-1-3 5-8 1-1-2-9v-2l4-3h7z" fill="#04D1FF"/>
<path transform="translate(566,436)" d="m0 0 4 1-2 3h-9l-1 4-3 3h2l3 6-3 1-4-1-4 4h-4l2 2 9-2 8-1 1-2 7 4 1-2h2l-1 3-16 5h-2v41l-4-5-1-13v-13l-2-10-8-2-3 3-1 7-1 12-4 1v-37l4-3z" fill="#11DBFF"/>
<path transform="translate(534,485)" d="m0 0h2v11h-3l1 15v9l1 6-1 5v22l-1 5h-1v-70h2z" fill="#12DCFF"/>
<path transform="translate(264,758)" d="m0 0h1l1 14 4 11 1 3h-2v-2h-4l-1-2z" fill="#11DBFF"/>
<path transform="translate(605,490)" d="m0 0 3 1v22l-2 1-1-21-2-2z" fill="#0CD7FF"/>
<path transform="translate(593,450)" d="m0 0 4 1-10 4-10 3-1-2 11-5z" fill="#11DBFF"/>
<path transform="translate(603,425)" d="m0 0 5 1-1 6-2-4-3-1v2l-4 1-4-1-1 2-3 1v-3z" fill="#10DBFF"/>
<path transform="translate(581,497)" d="m0 0 2 1-8 4-12 3h-3v-2z" fill="#10DBFF"/>
<path transform="translate(555,530)" d="m0 0h1v22h-1l-2-18z" fill="#12DCFF"/>
<path transform="translate(583,431)" d="m0 0 2 2h-2l-1 3-7 1-2-1v-2z" fill="#11DBFF"/>
<path transform="translate(776,214)" d="m0 0h2l3 6 1 5v7l-2 1-2-13z" fill="#10DAFF"/>
<path transform="translate(272,788)" d="m0 0 4 2 10 8-1 2h-4l-4-6-5-4z" fill="#10DBFF"/>
<path transform="translate(684,234)" d="m0 0 4 1v5h-2v2l-4-1 1-5z" fill="#04D1FF"/>
<path transform="translate(248,783)" d="m0 0h2l4 5v4h2l1 6-4-4z" fill="#0FD9FF"/>
<path transform="translate(714,236)" d="m0 0 4 1-4 2-11 3 1-3z" fill="#12DCFF"/>
</svg>
